<svg width="152" height="48" viewBox="0 0 152 48" fill="none" xmlns="http://www.w3.org/2000/svg">
<g clip-path="url(#clip0)">
<path d="M152 30.5156C152.021 31.8677 151.776 33.2106 151.279 34.4674C150.83 35.5914 150.162 36.6139 149.314 37.4749C148.472 38.3176 147.459 38.969 146.345 39.385C143.955 40.2631 141.333 40.2631 138.943 39.385C137.833 38.9619 136.821 38.3115 135.974 37.4749C135.115 36.6189 134.439 35.5955 133.987 34.4674C133.49 33.2106 133.246 31.8677 133.266 30.5156V18.0021H137.852V30.8671C137.852 32.3893 138.317 33.5894 139.249 34.4674C140.167 35.3406 141.391 35.8139 142.655 35.7845C143.271 35.7975 143.883 35.6878 144.456 35.4618C145.03 35.2357 145.553 34.8978 145.996 34.4674C146.913 33.5892 147.371 32.3891 147.371 30.8671V18.0021H152V30.5156Z" fill="#5D65C0"/>
<path d="M127.69 23.0953C127.238 21.9672 126.562 20.9438 125.703 20.0878C124.855 19.2512 123.844 18.6008 122.734 18.1776C120.344 17.2996 117.722 17.2996 115.332 18.1776C114.972 18.3155 114.622 18.4766 114.283 18.66V6.04248H109.654V39.5606H114.306V26.6956C114.306 25.1734 114.764 23.9733 115.681 23.0953C116.124 22.6649 116.647 22.327 117.221 22.1009C117.794 21.8748 118.406 21.7652 119.022 21.7782C120.285 21.7488 121.51 22.2221 122.428 23.0953C123.36 23.9735 123.826 25.1736 123.825 26.6956V39.5606H128.41V27.0471C128.431 25.695 128.186 24.352 127.69 23.0953Z" fill="#5D65C0"/>
<path d="M99.3944 18.0222V20.0081C97.749 18.6919 95.7678 17.8691 93.6782 17.6342C91.5886 17.3993 89.4756 17.7618 87.5817 18.6802C85.6879 19.5985 84.0901 21.0354 82.972 22.8258C81.8539 24.6162 81.2607 26.6874 81.2607 28.8014C81.2607 30.9155 81.8539 32.9867 82.972 34.7771C84.0901 36.5675 85.6879 38.0044 87.5817 38.9227C89.4756 39.8411 91.5886 40.2036 93.6782 39.9687C95.7678 39.7338 97.749 38.911 99.3944 37.5948V39.5807H103.624V18.0222L99.3944 18.0222ZM92.4487 35.7852C91.075 35.7852 89.7321 35.3756 88.5898 34.6082C87.4476 33.8409 86.5574 32.7502 86.0316 31.474C85.5059 30.1979 85.3684 28.7937 85.6364 27.439C85.9044 26.0843 86.5659 24.8399 87.5372 23.8632C88.5086 22.8865 89.7462 22.2214 91.0936 21.9519C92.4409 21.6824 93.8375 21.8207 95.1066 22.3493C96.3758 22.8779 97.4606 23.773 98.2238 24.9215C98.987 26.0699 99.3944 27.4202 99.3944 28.8014C99.3923 30.653 98.6599 32.4281 97.3578 33.7374C96.0556 35.0466 94.2902 35.7831 92.4487 35.7852Z" fill="#5D65C0"/>
<path d="M98.7371 8.18909H86.1606V11.8771H98.7371V8.18909Z" fill="#5D65C0"/>
<path d="M61.2479 39.5606H56.2769V8.43945H61.2479V39.5606ZM67.4384 23.0097L81.1894 39.5606H75.046L61.2479 23.0097L73.6861 8.43945H79.7827L67.4384 23.0097Z" fill="#5D65C0"/>
<path d="M14.4476 20.7711C15.1309 20.7711 15.7863 20.4981 16.2695 20.0123C16.7527 19.5265 17.0241 18.8675 17.0241 18.1804H11.8711C11.8711 18.8675 12.1425 19.5264 12.6257 20.0123C13.1089 20.4981 13.7643 20.7711 14.4476 20.7711Z" fill="#5D65C0"/>
<path d="M23.8694 0C10.7077 0 0 10.7663 0 24C0 37.2337 10.7077 48 23.8694 48C37.031 48 47.7387 37.2337 47.7387 24C47.7387 10.7663 37.031 0 23.8694 0ZM23.8694 43.7714C13.0267 43.7714 4.20548 34.902 4.20548 24C4.20548 21.3781 5.24134 18.8636 7.08519 17.0097C8.92904 15.1557 11.4298 14.1142 14.0374 14.1142C16.645 14.1142 19.1458 15.1557 20.9897 17.0097C22.8335 18.8636 23.8694 21.3781 23.8694 24H28.0749C28.0755 21.739 27.5357 19.5109 26.5009 17.5035C25.4662 15.496 23.9669 13.768 22.1292 12.4649C20.2915 11.1618 18.1693 10.3218 15.9413 10.0157C13.7133 9.70957 11.4447 9.94625 9.32671 10.7058C11.1666 8.66504 13.4112 7.03435 15.9159 5.91875C18.4206 4.80315 21.1299 4.22737 23.8694 4.2285C34.712 4.2285 43.5332 13.098 43.5332 24C43.5322 26.6212 42.4959 29.1347 40.6522 30.9879C38.8084 32.841 36.3082 33.882 33.7012 33.882C31.0943 33.882 28.5941 32.841 26.7503 30.9879C24.9066 29.1347 23.8703 26.6212 23.8693 24H19.6638C19.6632 26.261 20.203 28.4891 21.2377 30.4965C22.2724 32.5039 23.7717 34.232 25.6094 35.5351C27.4471 36.8382 29.5693 37.6782 31.7973 37.9843C34.0253 38.2904 36.2939 38.0538 38.4119 37.2942C36.572 39.3349 34.3275 40.9656 31.8228 42.0812C29.3181 43.1967 26.6088 43.7725 23.8694 43.7714Z" fill="#5D65C0"/>
</g>
<defs>
<clipPath id="clip0">
<rect width="152" height="48" fill="white"/>
</clipPath>
</defs>
</svg>
