<svg width="116" height="37" viewBox="0 0 116 37" fill="none" xmlns="http://www.w3.org/2000/svg">
<g clip-path="url(#clip0)">
<path d="M116 23.5221C116.016 24.5643 115.829 25.5995 115.45 26.5682C115.107 27.4346 114.598 28.2228 113.951 28.8865C113.308 29.5361 112.535 30.0382 111.685 30.3589C109.861 31.0358 107.86 31.0358 106.036 30.3589C105.188 30.0328 104.417 29.5314 103.77 28.8865C103.114 28.2267 102.598 27.4378 102.254 26.5682C101.875 25.5995 101.688 24.5643 101.704 23.5221V13.8762H105.203V23.793C105.203 24.9664 105.558 25.8914 106.269 26.5682C106.97 27.2413 107.904 27.6062 108.869 27.5835C109.339 27.5935 109.806 27.509 110.243 27.3347C110.681 27.1605 111.08 26.9 111.418 26.5682C112.118 25.8913 112.468 24.9662 112.468 23.793V13.8762H116V23.5221Z" fill="#5C64C5"/>
<path d="M97.4479 17.8027C97.1032 16.9331 96.5872 16.1442 95.9316 15.4844C95.2847 14.8396 94.5131 14.3382 93.6655 14.012C91.8416 13.3352 89.8407 13.3352 88.0168 14.012C87.7424 14.1183 87.4751 14.2424 87.2165 14.3838V4.65784H83.6836V30.4947H87.2336V20.578C87.2336 19.4046 87.5835 18.4795 88.2834 17.8027C88.6213 17.471 89.0206 17.2105 89.4582 17.0362C89.8957 16.862 90.3629 16.7774 90.8328 16.7874C91.7972 16.7648 92.7313 17.1296 93.4322 17.8027C94.1434 18.4797 94.4989 19.4047 94.4986 20.578V30.4947H97.9978V20.8489C98.0137 19.8066 97.8268 18.7715 97.4479 17.8027Z" fill="#5C64C5"/>
<path d="M75.8535 13.8919V15.4227C74.5978 14.4082 73.0858 13.7739 71.4911 13.5928C69.8965 13.4118 68.2838 13.6912 66.8386 14.3991C65.3933 15.107 64.1739 16.2146 63.3206 17.5947C62.4673 18.9748 62.0146 20.5713 62.0146 22.2009C62.0146 23.8305 62.4673 25.4271 63.3206 26.8072C64.1739 28.1872 65.3933 29.2948 66.8386 30.0027C68.2838 30.7106 69.8965 30.9901 71.4911 30.809C73.0858 30.628 74.5978 29.9937 75.8535 28.9791V30.5099H79.0816V13.8919L75.8535 13.8919ZM70.5528 27.5842C69.5044 27.5842 68.4796 27.2685 67.6079 26.677C66.7362 26.0855 66.0568 25.2447 65.6556 24.2611C65.2544 23.2774 65.1494 22.195 65.3539 21.1507C65.5585 20.1065 66.0633 19.1473 66.8046 18.3944C67.5459 17.6415 68.4904 17.1288 69.5186 16.9211C70.5469 16.7134 71.6127 16.82 72.5812 17.2274C73.5498 17.6348 74.3777 18.3248 74.9601 19.2101C75.5426 20.0954 75.8535 21.1362 75.8535 22.2009C75.8519 23.6282 75.2929 24.9965 74.2992 26.0057C73.3055 27.0149 71.9582 27.5826 70.5528 27.5842Z" fill="#5C64C5"/>
<path d="M75.3517 6.31226H65.7539V9.1551H75.3517V6.31226Z" fill="#5C64C5"/>
<path d="M46.7414 30.4945H42.9478V6.50525H46.7414V30.4945ZM51.4658 17.7365L61.96 30.4945H57.2716L46.7414 17.7365L56.2337 6.50525H60.8864L51.4658 17.7365Z" fill="#5C64C5"/>
<path d="M11.0258 16.0108C11.5473 16.0108 12.0475 15.8004 12.4162 15.4259C12.785 15.0514 12.9922 14.5434 12.9921 14.0138H9.05957C9.05957 14.5434 9.26672 15.0514 9.63547 15.4259C10.0042 15.8004 10.5043 16.0108 11.0258 16.0108Z" fill="#5C64C5"/>
<path d="M18.2161 0C8.17168 0 0 8.29905 0 18.5C0 28.701 8.17168 37 18.2161 37C28.2605 37 36.4321 28.701 36.4321 18.5C36.4322 8.29905 28.2605 0 18.2161 0ZM18.2161 33.7404C9.94139 33.7404 3.20944 26.9037 3.20944 18.5C3.20944 16.479 3.99997 14.5407 5.40712 13.1116C6.81427 11.6825 8.72277 10.8797 10.7128 10.8797C12.7028 10.8797 14.6113 11.6825 16.0184 13.1116C17.4256 14.5407 18.2161 16.479 18.2161 18.5H21.4256C21.426 16.7571 21.014 15.0397 20.2244 13.4923C19.4347 11.9449 18.2905 10.6128 16.8881 9.60837C15.4856 8.60391 13.866 7.95642 12.1657 7.72044C10.4654 7.48446 8.73414 7.6669 7.11775 8.25239C8.52187 6.6793 10.2348 5.42231 12.1463 4.56237C14.0578 3.70243 16.1255 3.2586 18.2161 3.25947C26.4908 3.25947 33.2227 10.0963 33.2227 18.5C33.222 20.5205 32.4311 22.458 31.024 23.8865C29.617 25.3149 27.7089 26.1174 25.7194 26.1174C23.7299 26.1174 21.8218 25.3149 20.4147 23.8865C19.0076 22.458 18.2168 20.5205 18.216 18.5H15.0066C15.0061 20.2428 15.4181 21.9603 16.2077 23.5077C16.9974 25.0551 18.1416 26.3872 19.544 27.3916C20.9465 28.3961 22.5661 29.0436 24.2664 29.2796C25.9667 29.5156 27.698 29.3331 29.3143 28.7476C27.9102 30.3207 26.1973 31.5776 24.2858 32.4376C22.3743 33.2975 20.3067 33.7413 18.2161 33.7404Z" fill="#5C64C5"/>
</g>
<defs>
<clipPath id="clip0">
<rect width="116" height="37" fill="white"/>
</clipPath>
</defs>
</svg>
