<svg width="340" height="340" viewBox="0 0 340 340" fill="none" xmlns="http://www.w3.org/2000/svg">
<g clip-path="url(#clip0)">
<path d="M78.77 323.269L139.299 233.44V200.699H106.558L31.4238 275.833L78.77 323.269Z" fill="#D6948C"/>
<path d="M106.558 200.7L16.8447 261.145C16.7257 261.225 16.6101 261.31 16.4986 261.4C6.01328 269.836 0 282.385 0 295.83C0 320.186 19.8151 340.001 44.1706 340.001C57.616 340.001 70.3348 333.756 78.7705 323.27C66.9643 280.421 77.4872 234.315 106.558 200.7Z" fill="#CE857A"/>
<path d="M199.143 0L170 9.71429L92.2861 140.857L170 272L199.143 281.714C276.698 281.714 340 218.862 340 140.857C340 62.8966 276.745 0 199.143 0V0Z" fill="#9EA2E3"/>
<path d="M123.372 140.857C123.372 84.1599 151.834 31.2485 199.143 0C121.35 0 58.2861 63.0642 58.2861 140.857C58.2861 218.65 121.35 281.714 199.143 281.714C151.834 250.465 123.372 197.554 123.372 140.857Z" fill="#8288CB"/>
<path d="M239.99 73.57C228.548 66.9403 215.261 63.1429 201.085 63.1429C193.066 63.1429 185.331 64.3585 178.054 66.6133L130.616 108.06C125.97 118.025 123.371 129.136 123.371 140.856C123.371 147.568 124.222 154.08 125.822 160.292L226.445 214.335C234.165 211.671 241.333 207.828 247.734 203.016L278.228 150.294L239.99 73.57Z" fill="#FFBF9D"/>
<path d="M247.734 203.017C264.226 190.62 275.623 171.813 278.228 150.295H257.995C252.328 150.295 247.734 154.89 247.734 160.557V203.017Z" fill="#FFD4BD"/>
<path d="M229.044 131.605L244.728 147.289C246.653 149.214 249.263 150.294 251.985 150.294H278.228C278.603 147.201 278.8 144.052 278.8 140.857C278.8 112.112 263.192 87.014 239.99 73.57L212.756 100.804C208.749 104.812 208.749 111.309 212.756 115.316L229.044 131.605Z" fill="#FFDDCF"/>
<path d="M175.048 111.066L156.368 129.746C152.36 133.753 152.36 140.25 156.368 144.258L179.123 167.013C183.131 171.02 189.628 171.02 193.635 167.013L221.788 138.86C225.796 134.852 225.796 128.355 221.788 124.348L208.506 111.065C206.581 109.141 203.971 108.06 201.249 108.06H182.304C179.582 108.06 176.972 109.141 175.048 111.066Z" fill="#FFD4BD"/>
<path d="M141.855 144.258L125.821 160.292C134.451 193.808 164.876 218.571 201.085 218.571C209.965 218.571 218.496 217.077 226.445 214.335L186.379 174.269L156.368 144.258C152.36 140.25 145.863 140.25 141.855 144.258Z" fill="#FFCBBE"/>
<path d="M130.616 108.06H167.792C173.459 108.06 178.053 103.465 178.053 97.7982V66.6133C157.015 73.1329 139.805 88.3501 130.616 108.06Z" fill="#FFCBBE"/>
<path d="M213.775 22.9093C207.529 29.1545 208.824 40.575 216.666 48.4175C224.508 56.2594 235.929 57.5544 242.174 51.3092C248.42 45.064 247.125 33.6436 239.283 25.801C231.44 17.9585 220.02 16.6641 213.775 22.9093Z" fill="#FFDBE0"/>
<path d="M316.251 102.77C308.409 94.9277 296.989 93.6327 290.743 99.8779C284.498 106.123 285.793 117.544 293.635 125.386C301.477 133.229 312.898 134.523 319.143 128.278C325.388 122.033 324.094 110.612 316.251 102.77Z" fill="#FFDBE0"/>
<path d="M246.576 27.8027L240.771 33.6073C238.768 35.6118 238.768 38.8599 240.771 40.8636C242.776 42.8674 246.024 42.8667 248.028 40.8636L253.832 35.059C255.836 33.0546 255.836 29.8065 253.832 27.8027C251.828 25.7997 248.58 25.7997 246.576 27.8027Z" fill="#313D40"/>
<path d="M314.25 88.2201C312.245 86.2171 308.997 86.2171 306.993 88.2201L301.189 94.0248C299.185 96.0292 299.185 99.2773 301.189 101.281C303.194 103.285 306.441 103.284 308.445 101.281L314.25 95.4764C316.254 93.4727 316.254 90.2246 314.25 88.2201Z" fill="#313D40"/>
<path d="M282.394 70.1172C276.407 70.5127 271.53 65.5768 271.935 59.6587C272.129 56.8312 269.994 54.3822 267.168 54.1886C264.347 54.0011 261.891 56.1294 261.698 58.9561C260.866 71.0866 270.915 81.1847 283.096 80.3549C285.923 80.1613 288.058 77.7122 287.864 74.8848C287.67 72.058 285.227 69.9277 282.394 70.1172Z" fill="#313D40"/>
</g>
<defs>
<clipPath id="clip0">
<rect width="340" height="340" fill="white"/>
</clipPath>
</defs>
</svg>
